<svg width="4614" height="4046" viewBox="0 0 4614 4046" fill="none" xmlns="http://www.w3.org/2000/svg">
<path fill-rule="evenodd" clip-rule="evenodd" d="M1755.19 1666.39V588H2315.33L2540.27 873.315H2060.26V1559.8L2328.57 1725.93L2619.66 1544.36V1436.3H2354.29V1154.76H2899V1667.86L2327.83 2022.91L1755.19 1666.39ZM2899 1095.95V588H2408.69L2618.93 873.315L2620.4 1095.95H2899Z" fill="#FF0000"/>
<path d="M832.571 2313V2398.09H595.41V2840.19H487.148V2313H832.571ZM558.116 2505.26H681.222C722.741 2505.26 758.466 2512.14 788.397 2525.9C818.329 2539.66 841.381 2558.97 857.554 2583.83C873.727 2608.7 881.813 2637.66 881.813 2670.73C881.813 2695.84 877.227 2718.77 868.054 2739.53C858.882 2760.05 845.485 2777.91 827.864 2793.12C810.484 2808.08 789.484 2819.67 764.862 2827.87C740.241 2836.08 712.361 2840.19 681.222 2840.19H487.148V2313H596.134V2755.46H681.222C701.981 2755.46 719.12 2751.6 732.637 2743.87C746.155 2736.15 756.293 2725.89 763.052 2713.1C770.052 2700.06 773.552 2685.7 773.552 2670.01C773.552 2655.04 770.052 2641.53 763.052 2629.46C756.293 2617.15 746.155 2607.49 732.637 2600.49C719.12 2593.49 701.981 2589.99 681.222 2589.99H558.116V2505.26Z" fill="black"/>
<path d="M1141.41 2847.43C1110.99 2847.43 1083.72 2842.6 1059.58 2832.94C1035.44 2823.05 1014.92 2809.41 998.026 2792.03C981.37 2774.65 968.577 2754.49 959.646 2731.56C950.714 2708.39 946.249 2683.77 946.249 2657.7V2643.22C946.249 2613.52 950.473 2586.37 958.922 2561.75C967.37 2537.13 979.439 2515.76 995.129 2497.66C1011.06 2479.56 1030.37 2465.68 1053.06 2456.02C1075.75 2446.12 1101.34 2441.18 1129.82 2441.18C1157.58 2441.18 1182.2 2445.76 1203.69 2454.93C1225.17 2464.11 1243.15 2477.14 1257.64 2494.04C1272.36 2510.94 1283.46 2531.21 1290.95 2554.87C1298.43 2578.28 1302.17 2604.35 1302.17 2633.08V2676.53H990.784V2607.01H1199.7V2599.04C1199.7 2584.56 1197.05 2571.64 1191.74 2560.3C1186.67 2548.71 1178.94 2539.54 1168.56 2532.78C1158.19 2526.02 1144.91 2522.64 1128.74 2522.64C1114.98 2522.64 1103.15 2525.66 1093.25 2531.7C1083.36 2537.73 1075.27 2546.18 1068.99 2557.04C1062.96 2567.9 1058.37 2580.7 1055.23 2595.42C1052.34 2609.9 1050.89 2625.84 1050.89 2643.22V2657.7C1050.89 2673.39 1053.06 2687.87 1057.41 2701.15C1061.99 2714.42 1068.39 2725.89 1076.6 2735.55C1085.05 2745.2 1095.18 2752.68 1107.01 2757.99C1119.08 2763.3 1132.72 2765.96 1147.93 2765.96C1166.75 2765.96 1184.25 2762.34 1200.43 2755.1C1216.84 2747.61 1230.96 2736.39 1242.79 2721.42L1293.48 2776.46C1285.27 2788.29 1274.05 2799.63 1259.81 2810.5C1245.81 2821.36 1228.91 2830.29 1209.12 2837.29C1189.32 2844.05 1166.75 2847.43 1141.41 2847.43Z" fill="black"/>
<path d="M1550.9 2653.35H1473.42V2606.65H1528.82C1541.85 2606.65 1552.23 2604.83 1559.96 2601.21C1567.92 2597.59 1573.59 2592.52 1576.97 2586.01C1580.6 2579.25 1582.41 2571.64 1582.41 2563.2C1582.41 2555.71 1580.84 2548.59 1577.7 2541.83C1574.8 2534.83 1569.49 2529.16 1561.77 2524.82C1554.28 2520.23 1543.66 2517.94 1529.9 2517.94C1518.56 2517.94 1508.42 2519.63 1499.49 2523.01C1490.8 2526.38 1483.92 2531.33 1478.85 2537.85C1474.02 2544.13 1471.61 2551.73 1471.61 2560.66H1366.97C1366.97 2535.8 1374.09 2514.56 1388.33 2496.94C1402.57 2479.07 1421.64 2465.43 1445.54 2456.02C1469.44 2446.37 1495.63 2441.54 1524.11 2441.54C1548.97 2441.54 1571.42 2444.07 1591.46 2449.14C1611.49 2453.97 1628.63 2461.21 1642.87 2470.87C1657.11 2480.52 1667.98 2492.47 1675.46 2506.71C1683.18 2520.71 1687.05 2537.01 1687.05 2555.59C1687.05 2568.87 1683.91 2581.42 1677.63 2593.25C1671.36 2605.08 1662.3 2615.58 1650.48 2624.75C1638.65 2633.68 1624.29 2640.68 1607.39 2645.75C1590.73 2650.82 1571.91 2653.35 1550.9 2653.35ZM1473.42 2627.28H1550.9C1574.32 2627.28 1594.84 2629.58 1612.46 2634.16C1630.32 2638.51 1645.29 2645.03 1657.36 2653.72C1669.42 2662.41 1678.48 2673.15 1684.51 2685.94C1690.79 2698.49 1693.93 2712.98 1693.93 2729.39C1693.93 2747.98 1689.82 2764.63 1681.61 2779.36C1673.41 2793.84 1661.7 2806.15 1646.49 2816.29C1631.29 2826.43 1613.3 2834.15 1592.54 2839.46C1571.78 2844.77 1548.97 2847.43 1524.11 2847.43C1497.56 2847.43 1471.73 2843.08 1446.63 2834.39C1421.52 2825.7 1400.88 2812.31 1384.71 2794.2C1368.78 2776.1 1360.81 2752.8 1360.81 2724.32H1465.45C1465.45 2732.53 1467.87 2740.25 1472.7 2747.49C1477.52 2754.74 1484.76 2760.53 1494.42 2764.87C1504.08 2768.98 1516.02 2771.03 1530.27 2771.03C1544.51 2771.03 1555.97 2768.74 1564.66 2764.15C1573.35 2759.56 1579.63 2753.53 1583.49 2746.05C1587.6 2738.32 1589.65 2730.36 1589.65 2722.15C1589.65 2710.56 1587.35 2701.15 1582.77 2693.91C1578.42 2686.66 1571.66 2681.35 1562.49 2677.97C1553.56 2674.6 1542.34 2672.91 1528.82 2672.91H1473.42V2627.28Z" fill="black"/>
<path d="M1756.19 2648.28V2640.68C1756.19 2611.96 1760.29 2585.52 1768.5 2561.39C1776.71 2537.01 1788.65 2515.88 1804.34 2498.02C1820.03 2480.16 1839.35 2466.28 1862.28 2456.38C1885.21 2446.24 1911.52 2441.18 1941.21 2441.18C1970.9 2441.18 1997.33 2446.24 2020.51 2456.38C2043.68 2466.28 2063.11 2480.16 2078.8 2498.02C2094.73 2515.88 2106.8 2537.01 2115.01 2561.39C2123.21 2585.52 2127.32 2611.96 2127.32 2640.68V2648.28C2127.32 2676.77 2123.21 2703.2 2115.01 2727.58C2106.8 2751.72 2094.73 2772.84 2078.8 2790.94C2063.11 2808.81 2043.8 2822.69 2020.87 2832.58C1997.94 2842.48 1971.62 2847.43 1941.93 2847.43C1912.24 2847.43 1885.81 2842.48 1862.64 2832.58C1839.71 2822.69 1820.28 2808.81 1804.34 2790.94C1788.65 2772.84 1776.71 2751.72 1768.5 2727.58C1760.29 2703.2 1756.19 2676.77 1756.19 2648.28ZM1860.47 2640.68V2648.28C1860.47 2664.7 1861.92 2680.03 1864.81 2694.27C1867.71 2708.51 1872.29 2721.06 1878.57 2731.92C1885.09 2742.55 1893.54 2750.87 1903.92 2756.91C1914.3 2762.94 1926.97 2765.96 1941.93 2765.96C1956.42 2765.96 1968.85 2762.94 1979.23 2756.91C1989.61 2750.87 1997.94 2742.55 2004.21 2731.92C2010.49 2721.06 2015.07 2708.51 2017.97 2694.27C2021.11 2680.03 2022.68 2664.7 2022.68 2648.28V2640.68C2022.68 2624.75 2021.11 2609.78 2017.97 2595.78C2015.07 2581.54 2010.37 2568.99 2003.85 2558.13C1997.57 2547.02 1989.25 2538.33 1978.87 2532.06C1968.49 2525.78 1955.93 2522.64 1941.21 2522.64C1926.49 2522.64 1913.93 2525.78 1903.55 2532.06C1893.42 2538.33 1885.09 2547.02 1878.57 2558.13C1872.29 2568.99 1867.71 2581.54 1864.81 2595.78C1861.92 2609.78 1860.47 2624.75 1860.47 2640.68Z" fill="black"/>
<path d="M2469.83 2448.42V2530.25H2280.1V2448.42H2469.83ZM2310.15 2448.42V2840.19H2205.87V2448.42H2310.15ZM2545.87 2448.42V2840.19H2441.23V2448.42H2545.87Z" fill="black"/>
<path d="M2852.53 2751.84V2577.32C2852.53 2564.76 2850.48 2554.02 2846.38 2545.09C2842.27 2535.92 2835.88 2528.8 2827.19 2523.73C2818.74 2518.66 2807.75 2516.13 2794.24 2516.13C2782.65 2516.13 2772.63 2518.18 2764.18 2522.28C2755.74 2526.14 2749.22 2531.82 2744.63 2539.3C2740.05 2546.54 2737.75 2555.11 2737.75 2565.01H2633.47C2633.47 2548.35 2637.34 2532.54 2645.06 2517.57C2652.79 2502.61 2664.01 2489.45 2678.73 2478.11C2693.46 2466.52 2710.96 2457.47 2731.24 2450.95C2751.75 2444.43 2774.68 2441.18 2800.03 2441.18C2830.44 2441.18 2857.48 2446.24 2881.14 2456.38C2904.79 2466.52 2923.38 2481.73 2936.9 2502C2950.65 2522.28 2957.53 2547.63 2957.53 2578.04V2745.68C2957.53 2767.17 2958.86 2784.79 2961.52 2798.55C2964.17 2812.06 2968.03 2823.89 2973.1 2834.03V2840.19H2867.74C2862.67 2829.56 2858.81 2816.29 2856.15 2800.36C2853.74 2784.18 2852.53 2768.01 2852.53 2751.84ZM2866.29 2601.58L2867.01 2660.59H2808.72C2794.96 2660.59 2783.01 2662.16 2772.87 2665.3C2762.74 2668.44 2754.41 2672.91 2747.89 2678.7C2741.37 2684.25 2736.55 2690.77 2733.41 2698.25C2730.51 2705.73 2729.06 2713.94 2729.06 2722.87C2729.06 2731.8 2731.11 2739.89 2735.22 2747.13C2739.32 2754.13 2745.24 2759.68 2752.96 2763.79C2760.68 2767.65 2769.74 2769.58 2780.12 2769.58C2795.81 2769.58 2809.44 2766.44 2821.03 2760.17C2832.62 2753.89 2841.55 2746.17 2847.82 2736.99C2854.34 2727.82 2857.72 2719.13 2857.96 2710.92L2885.48 2755.1C2881.62 2764.99 2876.31 2775.25 2869.55 2785.87C2863.03 2796.49 2854.7 2806.51 2844.57 2815.93C2834.43 2825.1 2822.24 2832.7 2808 2838.74C2793.75 2844.53 2776.86 2847.43 2757.3 2847.43C2732.44 2847.43 2709.87 2842.48 2689.6 2832.58C2669.56 2822.44 2653.63 2808.56 2641.8 2790.94C2630.22 2773.08 2624.42 2752.8 2624.42 2730.11C2624.42 2709.6 2628.28 2691.37 2636.01 2675.44C2643.73 2659.51 2655.08 2646.11 2670.04 2635.25C2685.25 2624.15 2704.2 2615.82 2726.89 2610.27C2749.58 2604.47 2775.89 2601.58 2805.82 2601.58H2866.29Z" fill="black"/>
<path d="M3214.59 2765.96C3227.39 2765.96 3238.73 2763.55 3248.63 2758.72C3258.53 2753.65 3266.25 2746.65 3271.8 2737.72C3277.6 2728.54 3280.61 2717.8 3280.85 2705.49H3378.98C3378.74 2733.01 3371.37 2757.51 3356.89 2778.99C3342.41 2800.24 3322.98 2817.01 3298.6 2829.32C3274.22 2841.39 3246.94 2847.43 3216.77 2847.43C3186.35 2847.43 3159.8 2842.36 3137.11 2832.22C3114.66 2822.08 3095.95 2808.08 3080.99 2790.22C3066.02 2772.11 3054.8 2751.11 3047.31 2727.22C3039.83 2703.08 3036.09 2677.25 3036.09 2649.73V2639.23C3036.09 2611.47 3039.83 2585.64 3047.31 2561.75C3054.8 2537.61 3066.02 2516.61 3080.99 2498.75C3095.95 2480.64 3114.66 2466.52 3137.11 2456.38C3159.56 2446.24 3185.87 2441.18 3216.04 2441.18C3248.15 2441.18 3276.27 2447.33 3300.41 2459.64C3324.79 2471.95 3343.86 2489.57 3357.62 2512.5C3371.62 2535.2 3378.74 2562.11 3378.98 2593.25H3280.85C3280.61 2580.21 3277.84 2568.39 3272.53 2557.76C3267.46 2547.14 3259.98 2538.7 3250.08 2532.42C3240.42 2525.9 3228.47 2522.64 3214.23 2522.64C3199.03 2522.64 3186.59 2525.9 3176.94 2532.42C3167.28 2538.7 3159.8 2547.39 3154.49 2558.49C3149.18 2569.35 3145.44 2581.78 3143.27 2595.78C3141.33 2609.54 3140.37 2624.03 3140.37 2639.23V2649.73C3140.37 2664.94 3141.33 2679.54 3143.27 2693.54C3145.2 2707.54 3148.82 2719.98 3154.13 2730.84C3159.68 2741.7 3167.28 2750.27 3176.94 2756.55C3186.59 2762.82 3199.15 2765.96 3214.59 2765.96Z" fill="black"/>
<path d="M3722.58 2606.65V2687.75H3523.43V2606.65H3722.58ZM3558.19 2448.42V2840.19H3453.91V2448.42H3558.19ZM3793.18 2448.42V2840.19H3688.54V2448.42H3793.18Z" fill="black"/>
<path d="M3872.46 2648.28V2640.68C3872.46 2611.96 3876.57 2585.52 3884.77 2561.39C3892.98 2537.01 3904.93 2515.88 3920.62 2498.02C3936.31 2480.16 3955.62 2466.28 3978.55 2456.38C4001.48 2446.24 4027.79 2441.18 4057.48 2441.18C4087.17 2441.18 4113.61 2446.24 4136.78 2456.38C4159.95 2466.28 4179.38 2480.16 4195.07 2498.02C4211 2515.88 4223.07 2537.01 4231.28 2561.39C4239.49 2585.52 4243.59 2611.96 4243.59 2640.68V2648.28C4243.59 2676.77 4239.49 2703.2 4231.28 2727.58C4223.07 2751.72 4211 2772.84 4195.07 2790.94C4179.38 2808.81 4160.07 2822.69 4137.14 2832.58C4114.21 2842.48 4087.9 2847.43 4058.21 2847.43C4028.52 2847.43 4002.09 2842.48 3978.91 2832.58C3955.98 2822.69 3936.55 2808.81 3920.62 2790.94C3904.93 2772.84 3892.98 2751.72 3884.77 2727.58C3876.57 2703.2 3872.46 2676.77 3872.46 2648.28ZM3976.74 2640.68V2648.28C3976.74 2664.7 3978.19 2680.03 3981.08 2694.27C3983.98 2708.51 3988.57 2721.06 3994.84 2731.92C4001.36 2742.55 4009.81 2750.87 4020.19 2756.91C4030.57 2762.94 4043.24 2765.96 4058.21 2765.96C4072.69 2765.96 4085.12 2762.94 4095.5 2756.91C4105.88 2750.87 4114.21 2742.55 4120.49 2731.92C4126.76 2721.06 4131.35 2708.51 4134.24 2694.27C4137.38 2680.03 4138.95 2664.7 4138.95 2648.28V2640.68C4138.95 2624.75 4137.38 2609.78 4134.24 2595.78C4131.35 2581.54 4126.64 2568.99 4120.12 2558.13C4113.85 2547.02 4105.52 2538.33 4095.14 2532.06C4084.76 2525.78 4072.21 2522.64 4057.48 2522.64C4042.76 2522.64 4030.21 2525.78 4019.83 2532.06C4009.69 2538.33 4001.36 2547.02 3994.84 2558.13C3988.57 2568.99 3983.98 2581.54 3981.08 2595.78C3978.19 2609.78 3976.74 2624.75 3976.74 2640.68Z" fill="black"/>
<path d="M1328.96 3048.41H1446.27C1477.65 3048.41 1506.62 3053.6 1533.17 3063.98C1559.72 3074.12 1582.77 3088.84 1602.32 3108.16C1622.12 3127.22 1637.45 3150.28 1648.31 3177.31C1659.17 3204.11 1664.6 3234.04 1664.6 3267.11C1664.6 3299.45 1659.17 3328.9 1648.31 3355.45C1637.45 3381.77 1622.12 3404.34 1602.32 3423.16C1582.77 3441.99 1559.72 3456.47 1533.17 3466.61C1506.62 3476.75 1477.65 3481.82 1446.27 3481.82H1328.96C1297.33 3481.82 1268.25 3476.75 1241.69 3466.61C1215.14 3456.47 1191.97 3442.11 1172.18 3423.53C1152.38 3404.7 1136.93 3382.13 1125.83 3355.82C1114.97 3329.51 1109.54 3300.18 1109.54 3267.83C1109.54 3234.76 1114.97 3204.83 1125.83 3178.04C1136.93 3151 1152.38 3127.83 1172.18 3108.52C1191.97 3089.21 1215.14 3074.36 1241.69 3063.98C1268.25 3053.6 1297.33 3048.41 1328.96 3048.41ZM1328.96 3135.31C1305.78 3135.31 1285.39 3140.38 1267.76 3150.52C1250.14 3160.66 1236.51 3175.62 1226.85 3195.42C1217.19 3214.97 1212.37 3239.11 1212.37 3267.83C1212.37 3288.59 1215.14 3306.94 1220.69 3322.87C1226.49 3338.56 1234.57 3351.71 1244.95 3362.33C1255.33 3372.96 1267.64 3381.04 1281.89 3386.59C1296.13 3392.15 1311.82 3394.92 1328.96 3394.92H1446.99C1469.92 3394.92 1489.96 3389.97 1507.1 3380.08C1524.48 3370.18 1538 3355.7 1547.65 3336.63C1557.31 3317.56 1562.13 3294.38 1562.13 3267.11C1562.13 3245.62 1559.36 3226.68 1553.81 3210.26C1548.25 3193.85 1540.41 3180.09 1530.27 3168.98C1520.13 3157.88 1507.94 3149.55 1493.7 3144C1479.7 3138.21 1464.13 3135.31 1446.99 3135.31H1328.96ZM1439.75 2979.26V3549.89H1335.47V2979.26H1439.75Z" fill="#FF0000"/>
<path d="M1727.59 3336.26V3328.66C1727.59 3299.94 1731.69 3273.5 1739.9 3249.37C1748.11 3224.99 1760.06 3203.86 1775.75 3186C1791.44 3168.14 1810.75 3154.26 1833.68 3144.36C1856.61 3134.23 1882.92 3129.16 1912.61 3129.16C1942.3 3129.16 1968.73 3134.23 1991.91 3144.36C2015.08 3154.26 2034.51 3168.14 2050.2 3186C2066.13 3203.86 2078.2 3224.99 2086.41 3249.37C2094.62 3273.5 2098.72 3299.94 2098.72 3328.66V3336.26C2098.72 3364.75 2094.62 3391.18 2086.41 3415.56C2078.2 3439.7 2066.13 3460.82 2050.2 3478.92C2034.51 3496.79 2015.2 3510.67 1992.27 3520.56C1969.34 3530.46 1943.03 3535.41 1913.33 3535.41C1883.64 3535.41 1857.21 3530.46 1834.04 3520.56C1811.11 3510.67 1791.68 3496.79 1775.75 3478.92C1760.06 3460.82 1748.11 3439.7 1739.9 3415.56C1731.69 3391.18 1727.59 3364.75 1727.59 3336.26ZM1831.87 3328.66V3336.26C1831.87 3352.68 1833.32 3368.01 1836.21 3382.25C1839.11 3396.49 1843.7 3409.04 1849.97 3419.9C1856.49 3430.53 1864.94 3438.85 1875.32 3444.89C1885.7 3450.92 1898.37 3453.94 1913.33 3453.94C1927.82 3453.94 1940.25 3450.92 1950.63 3444.89C1961.01 3438.85 1969.34 3430.53 1975.61 3419.9C1981.89 3409.04 1986.47 3396.49 1989.37 3382.25C1992.51 3368.01 1994.08 3352.68 1994.08 3336.26V3328.66C1994.08 3312.73 1992.51 3297.76 1989.37 3283.76C1986.47 3269.52 1981.77 3256.97 1975.25 3246.11C1968.97 3235 1960.65 3226.31 1950.27 3220.04C1939.89 3213.76 1927.34 3210.62 1912.61 3210.62C1897.89 3210.62 1885.33 3213.76 1874.95 3220.04C1864.82 3226.31 1856.49 3235 1849.97 3246.11C1843.7 3256.97 1839.11 3269.52 1836.21 3283.76C1833.32 3297.76 1831.87 3312.73 1831.87 3328.66Z" fill="#FF0000"/>
<path d="M2281.92 3211.71V3678.79H2177.64V3136.4H2274.31L2281.92 3211.71ZM2529.94 3327.94V3335.54C2529.94 3364.02 2526.56 3390.46 2519.8 3414.84C2513.28 3439.22 2503.63 3460.46 2490.83 3478.56C2478.04 3496.42 2462.11 3510.42 2443.04 3520.56C2424.21 3530.46 2402.49 3535.41 2377.87 3535.41C2353.97 3535.41 2333.21 3530.58 2315.59 3520.92C2297.97 3511.27 2283.12 3497.75 2271.05 3480.37C2259.23 3462.75 2249.69 3442.35 2242.45 3419.18C2235.21 3396.01 2229.66 3371.14 2225.79 3344.59V3324.68C2229.66 3296.19 2235.21 3270.13 2242.45 3246.47C2249.69 3222.57 2259.23 3201.93 2271.05 3184.55C2283.12 3166.93 2297.85 3153.29 2315.23 3143.64C2332.85 3133.98 2353.49 3129.16 2377.14 3129.16C2402.01 3129.16 2423.85 3133.86 2442.68 3143.28C2461.75 3152.69 2477.68 3166.21 2490.47 3183.83C2503.51 3201.45 2513.28 3222.45 2519.8 3246.83C2526.56 3271.21 2529.94 3298.25 2529.94 3327.94ZM2425.3 3335.54V3327.94C2425.3 3311.28 2423.85 3295.95 2420.95 3281.95C2418.3 3267.71 2413.95 3255.28 2407.92 3244.66C2402.13 3234.04 2394.4 3225.83 2384.75 3220.04C2375.33 3214 2363.87 3210.99 2350.35 3210.99C2336.11 3210.99 2323.92 3213.28 2313.78 3217.87C2303.88 3222.45 2295.8 3229.09 2289.52 3237.78C2283.24 3246.47 2278.54 3256.85 2275.4 3268.92C2272.26 3280.99 2270.33 3294.63 2269.61 3309.83V3360.16C2270.81 3378.02 2274.19 3394.08 2279.74 3408.32C2285.3 3422.32 2293.86 3433.42 2305.45 3441.63C2317.04 3449.84 2332.24 3453.94 2351.07 3453.94C2364.83 3453.94 2376.42 3450.92 2385.83 3444.89C2395.25 3438.61 2402.85 3430.04 2408.64 3419.18C2414.68 3408.32 2418.9 3395.77 2421.32 3381.52C2423.97 3367.28 2425.3 3351.95 2425.3 3335.54Z" fill="#FF0000"/>
<path d="M2721.46 3483.99L2825.38 3136.4H2937.26L2779.76 3587.18C2776.38 3597.08 2771.79 3607.7 2766 3619.05C2760.45 3630.39 2752.84 3641.13 2743.19 3651.27C2733.77 3661.65 2721.83 3670.1 2707.34 3676.62C2693.1 3683.14 2675.6 3686.39 2654.84 3686.39C2644.94 3686.39 2636.86 3685.79 2630.58 3684.58C2624.31 3683.38 2616.82 3681.69 2608.13 3679.51V3603.12C2610.79 3603.12 2613.56 3603.12 2616.46 3603.12C2619.36 3603.36 2622.13 3603.48 2624.79 3603.48C2638.55 3603.48 2649.77 3601.91 2658.46 3598.77C2667.15 3595.63 2674.15 3590.81 2679.46 3584.29C2684.77 3578.01 2689 3569.8 2692.14 3559.67L2721.46 3483.99ZM2678.01 3136.4L2763.1 3420.27L2777.95 3530.7L2706.98 3538.3L2566.13 3136.4H2678.01Z" fill="#FF0000"/>
<path d="M3231.98 3408.32L3334.81 3136.4H3419.9L3267.1 3528.17H3196.86L3044.79 3136.4H3129.87L3231.98 3408.32ZM3104.89 3136.4V3528.17H3000.61V3136.4H3104.89ZM3361.6 3528.17V3136.4H3465.88V3528.17H3361.6Z" fill="#FF0000"/>
</svg>
